<svg version="1.1" xmlns="http://www.w3.org/2000/svg" viewBox="0 0 1149.9226531982422 574.734375" width="2299.8453063964844" height="1149.46875">
  <!-- svg-source:excalidraw -->
  
  <defs>
    <style class="style-fonts">
      @font-face {
        font-family: "Virgil";
        src: url("https://excalidraw.com/Virgil.woff2");
      }
      @font-face {
        font-family: "Cascadia";
        src: url("https://excalidraw.com/Cascadia.woff2");
      }
      @font-face {
        font-family: "Assistant";
        src: url("https://excalidraw.com/Assistant-Regular.woff2");
      }
    </style>
    
  </defs>
  <rect x="0" y="0" width="1149.9226531982422" height="574.734375" fill="#ffffff"></rect><g transform="translate(10 150.81640625) rotate(0 189.84375 43.19999999999982)"><text x="0" y="34.762499999999996" font-family="Cascadia, Segoe UI Emoji" font-size="36px" fill="#1e1e1e" text-anchor="start" style="white-space: pre;" direction="ltr" dominant-baseline="alphabetic">&lt;h1&gt;Header 1&lt;/h1&gt;</text><text x="0" y="77.96249999999999" font-family="Cascadia, Segoe UI Emoji" font-size="36px" fill="#1e1e1e" text-anchor="start" style="white-space: pre;" direction="ltr" dominant-baseline="alphabetic">&lt;p&gt;Paragraph 1&lt;/p&gt;</text></g><g stroke-linecap="round" transform="translate(659.04296875 115.578125) rotate(0 163.04296875 80.15234375)"><path d="M0 0 C99.34 0.01, 196.15 -1.12, 326.09 0 M0 0 C89.33 1.92, 177.46 1.78, 326.09 0 M326.09 0 C325.58 58.29, 324.52 117.24, 326.09 160.3 M326.09 0 C326.76 52.71, 326.31 106.48, 326.09 160.3 M326.09 160.3 C250.13 161.63, 175.36 160.92, 0 160.3 M326.09 160.3 C204.65 160.28, 83.88 160.38, 0 160.3 M0 160.3 C-1.77 96.13, -1.03 34.37, 0 0 M0 160.3 C1.73 125.09, 0.1 91.48, 0 0" stroke="#1e1e1e" stroke-width="2" fill="none"></path></g><g transform="translate(719.3125 172.32421875) rotate(0 84.375 21.59999999999991)"><text x="0" y="34.762499999999996" font-family="Cascadia, Segoe UI Emoji" font-size="36px" fill="#1e1e1e" text-anchor="start" style="white-space: pre;" direction="ltr" dominant-baseline="alphabetic">Header 1</text></g><g stroke-linecap="round" transform="translate(660.48828125 348.8671875) rotate(0 165.833984375 72.396484375)"><path d="M0 0 C102.98 2.91, 208.64 2.14, 331.67 0 M0 0 C90.24 1.96, 180.53 1.09, 331.67 0 M331.67 0 C332.27 50.31, 332.43 100.54, 331.67 144.79 M331.67 0 C332.77 31.74, 332.09 62.87, 331.67 144.79 M331.67 144.79 C256.16 147.1, 182.13 145.97, 0 144.79 M331.67 144.79 C227.21 144.69, 120.99 145.23, 0 144.79 M0 144.79 C-1.11 108.11, 0.17 70.49, 0 0 M0 144.79 C0.58 97.93, 1.15 50.42, 0 0" stroke="#1e1e1e" stroke-width="2" fill="none"></path></g><g transform="translate(716.015625 393.8984375) rotate(0 116.015625 21.59999999999991)"><text x="0" y="34.762499999999996" font-family="Cascadia, Segoe UI Emoji" font-size="36px" fill="#1e1e1e" text-anchor="start" style="white-space: pre;" direction="ltr" dominant-baseline="alphabetic">Paragraph 1</text></g><g stroke-linecap="round"><g transform="translate(794.58203125 282.7109375) rotate(0 -0.58984375 31.71875)"><path d="M0 0 C-0.7 17.3, 0.79 32.8, -1.18 63.44 M0 0 C-0.66 18.04, -0.2 36.7, -1.18 63.44" stroke="#1971c2" stroke-width="2" fill="none"></path></g><g transform="translate(794.58203125 282.7109375) rotate(0 -0.58984375 31.71875)"><path d="M15 0.07 C10.69 1.5, 8.36 1.47, 0 0 M15 0.07 C10.59 -0.36, 6.82 -0.28, 0 0" stroke="#1971c2" stroke-width="2" fill="none"></path></g><g transform="translate(794.58203125 282.7109375) rotate(0 -0.58984375 31.71875)"><path d="M-15 -0.07 C-11.97 1.16, -6.96 1.17, 0 0 M-15 -0.07 C-10.65 -0.36, -5.67 -0.23, 0 0" stroke="#1971c2" stroke-width="2" fill="none"></path></g><g transform="translate(794.58203125 282.7109375) rotate(0 -0.58984375 31.71875)"><path d="M-16.17 63.06 C-13.15 64.36, -8.14 64.44, -1.18 63.44 M-16.17 63.06 C-11.83 62.86, -6.85 63.08, -1.18 63.44" stroke="#1971c2" stroke-width="2" fill="none"></path></g><g transform="translate(794.58203125 282.7109375) rotate(0 -0.58984375 31.71875)"><path d="M13.82 63.82 C9.5 65.17, 7.17 65.07, -1.18 63.44 M13.82 63.82 C9.41 63.29, 5.64 63.29, -1.18 63.44" stroke="#1971c2" stroke-width="2" fill="none"></path></g></g><mask></mask><g transform="translate(806.14453125 290.0390625) rotate(0 52.5059814453125 22.5)"><text x="0" y="31.536" font-family="Virgil, Segoe UI Emoji" font-size="36px" fill="#1971c2" text-anchor="start" style="white-space: pre;" direction="ltr" dominant-baseline="alphabetic">margin</text></g><g transform="translate(750.6815185546875 222.0078125) rotate(0 62.72997283935547 22.5)"><text x="0" y="31.536" font-family="Virgil, Segoe UI Emoji" font-size="36px" fill="#f08c00" text-anchor="start" style="white-space: pre;" direction="ltr" dominant-baseline="alphabetic">padding</text></g><g stroke-linecap="round"><g transform="translate(731.55078125 218.5859375) rotate(0 0.357421875 24.25)"><path d="M0 0 C0.71 14.7, -0.25 29.88, 0.71 48.5 M0 0 C-0.17 13.35, -0.18 27.38, 0.71 48.5" stroke="#f08c00" stroke-width="2" fill="none"></path></g><g transform="translate(731.55078125 218.5859375) rotate(0 0.357421875 24.25)"><path d="M15 -0.12 C10.95 -0.07, 5.51 0.28, 0 0 M15 -0.12 C10.69 -0.2, 6.37 0.27, 0 0" stroke="#f08c00" stroke-width="2" fill="none"></path></g><g transform="translate(731.55078125 218.5859375) rotate(0 0.357421875 24.25)"><path d="M-15 0.12 C-9.91 -0.03, -6.22 0.24, 0 0 M-15 0.12 C-10.98 0.04, -6.98 0.43, 0 0" stroke="#f08c00" stroke-width="2" fill="none"></path></g><g transform="translate(731.55078125 218.5859375) rotate(0 0.357421875 24.25)"><path d="M-14.28 49.01 C-9.19 48.73, -5.5 48.89, 0.71 48.5 M-14.28 49.01 C-10.26 48.82, -6.26 49.1, 0.71 48.5" stroke="#f08c00" stroke-width="2" fill="none"></path></g><g transform="translate(731.55078125 218.5859375) rotate(0 0.357421875 24.25)"><path d="M15.71 47.99 C11.66 48.17, 6.22 48.63, 0.71 48.5 M15.71 47.99 C11.4 48.03, 7.08 48.6, 0.71 48.5" stroke="#f08c00" stroke-width="2" fill="none"></path></g></g><mask></mask><g stroke-linecap="round"><g transform="translate(1024.03515625 50.62890625) rotate(0 -27.529296875 32.6484375)"><path d="M0 0 C-12.78 16.53, -26.82 32.84, -55.06 65.3 M0 0 C-15.04 17.94, -30.15 34.32, -55.06 65.3" stroke="#2f9e44" stroke-width="2" fill="none"></path></g><g transform="translate(1024.03515625 50.62890625) rotate(0 -27.529296875 32.6484375)"><path d="M-46.75 41.72 C-48.52 48.47, -51.27 54.71, -55.06 65.3 M-46.75 41.72 C-49.1 48.41, -51.62 53.57, -55.06 65.3" stroke="#2f9e44" stroke-width="2" fill="none"></path></g><g transform="translate(1024.03515625 50.62890625) rotate(0 -27.529296875 32.6484375)"><path d="M-33.54 52.58 C-38.57 56.62, -44.51 60.24, -55.06 65.3 M-33.54 52.58 C-39.42 56.35, -45.49 58.59, -55.06 65.3" stroke="#2f9e44" stroke-width="2" fill="none"></path></g></g><mask></mask><g transform="translate(1030.5546875 10) rotate(0 54.683982849121094 22.5)"><text x="0" y="31.536" font-family="Virgil, Segoe UI Emoji" font-size="36px" fill="#2f9e44" text-anchor="start" style="white-space: pre;" direction="ltr" dominant-baseline="alphabetic">border</text></g><g stroke-linecap="round"><g transform="translate(730.5871401636382 122.8984375) rotate(0 0.357421875 24.25)"><path d="M0 0 C0.01 14.65, 1.32 30.69, 0.71 48.5 M0 0 C0.09 14.07, -0.03 28.44, 0.71 48.5" stroke="#f08c00" stroke-width="2" fill="none"></path></g><g transform="translate(730.5871401636382 122.8984375) rotate(0 0.357421875 24.25)"><path d="M15 -0.38 C9.98 -0.91, 5.98 -0.41, 0 0 M15 -0.38 C10.73 -0.21, 6.15 0.15, 0 0" stroke="#f08c00" stroke-width="2" fill="none"></path></g><g transform="translate(730.5871401636382 122.8984375) rotate(0 0.357421875 24.25)"><path d="M-15 0.38 C-10.41 -0.41, -4.8 -0.15, 0 0 M-15 0.38 C-10.59 0.29, -6.49 0.44, 0 0" stroke="#f08c00" stroke-width="2" fill="none"></path></g><g transform="translate(730.5871401636382 122.8984375) rotate(0 0.357421875 24.25)"><path d="M-14.28 48.92 C-9.7 48.12, -4.09 48.36, 0.71 48.5 M-14.28 48.92 C-9.87 48.82, -5.78 48.96, 0.71 48.5" stroke="#f08c00" stroke-width="2" fill="none"></path></g><g transform="translate(730.5871401636382 122.8984375) rotate(0 0.357421875 24.25)"><path d="M15.71 48.08 C10.69 47.57, 6.69 48.08, 0.71 48.5 M15.71 48.08 C11.45 48.26, 6.87 48.64, 0.71 48.5" stroke="#f08c00" stroke-width="2" fill="none"></path></g></g><mask></mask><g stroke-linecap="round"><g transform="translate(663.9308901636382 196.02734375) rotate(0 21.705078125 -0.427734375)"><path d="M0 0 C8.31 -0.6, 16.46 -0.61, 43.41 -0.86 M0 0 C13.59 -0.74, 26.92 -0.98, 43.41 -0.86" stroke="#f08c00" stroke-width="2" fill="none"></path></g><g transform="translate(663.9308901636382 196.02734375) rotate(0 21.705078125 -0.427734375)"><path d="M-0.43 -14.99 C-0.67 -12.4, -1.01 -9.27, 0 0 M-0.43 -14.99 C-0.05 -10.6, 0.08 -5.98, 0 0" stroke="#f08c00" stroke-width="2" fill="none"></path></g><g transform="translate(663.9308901636382 196.02734375) rotate(0 21.705078125 -0.427734375)"><path d="M0.43 14.99 C0.06 11.56, -0.45 8.68, 0 0 M0.43 14.99 C0.44 10.18, 0.31 5.6, 0 0" stroke="#f08c00" stroke-width="2" fill="none"></path></g><g transform="translate(663.9308901636382 196.02734375) rotate(0 21.705078125 -0.427734375)"><path d="M43.4 14.14 C43.12 10.71, 42.69 7.83, 43.41 -0.86 M43.4 14.14 C43.55 9.33, 43.55 4.74, 43.41 -0.86" stroke="#f08c00" stroke-width="2" fill="none"></path></g><g transform="translate(663.9308901636382 196.02734375) rotate(0 21.705078125 -0.427734375)"><path d="M43.42 -15.86 C43.1 -13.27, 42.67 -10.13, 43.41 -0.86 M43.42 -15.86 C43.66 -11.46, 43.66 -6.83, 43.41 -0.86" stroke="#f08c00" stroke-width="2" fill="none"></path></g></g><mask></mask><g stroke-linecap="round"><g transform="translate(901.494140625 194.11994105518534) rotate(0 37.1640625 -0.083984375)"><path d="M0 0 C16.94 -0.15, 31.79 0.25, 74.33 -0.17 M0 0 C19.56 -0.35, 38.32 -0.86, 74.33 -0.17" stroke="#f08c00" stroke-width="2" fill="none"></path></g><g transform="translate(901.494140625 194.11994105518534) rotate(0 37.1640625 -0.083984375)"><path d="M0.01 -15 C1.61 -11.51, 1.53 -8.17, 0 0 M0.01 -15 C0.14 -10.93, -0.2 -7.4, 0 0" stroke="#f08c00" stroke-width="2" fill="none"></path></g><g transform="translate(901.494140625 194.11994105518534) rotate(0 37.1640625 -0.083984375)"><path d="M-0.01 15 C1.36 12.45, 1.28 9.75, 0 0 M-0.01 15 C0.37 11.32, 0.04 7.09, 0 0" stroke="#f08c00" stroke-width="2" fill="none"></path></g><g transform="translate(901.494140625 194.11994105518534) rotate(0 37.1640625 -0.083984375)"><path d="M74.15 14.83 C75.55 12.28, 75.51 9.58, 74.33 -0.17 M74.15 14.83 C74.57 11.15, 74.28 6.93, 74.33 -0.17" stroke="#f08c00" stroke-width="2" fill="none"></path></g><g transform="translate(901.494140625 194.11994105518534) rotate(0 37.1640625 -0.083984375)"><path d="M74.51 -15.17 C76.08 -11.68, 75.96 -8.34, 74.33 -0.17 M74.51 -15.17 C74.6 -11.09, 74.21 -7.56, 74.33 -0.17" stroke="#f08c00" stroke-width="2" fill="none"></path></g></g><mask></mask><g stroke-linecap="round"><g transform="translate(798.85546875 46.17578125) rotate(0 -0.58984375 31.71875)"><path d="M0 0 C-1.04 24.17, -0.75 46.27, -1.18 63.44 M0 0 C-0.66 14.81, -0.23 31.13, -1.18 63.44" stroke="#1971c2" stroke-width="2" fill="none"></path></g><g transform="translate(798.85546875 46.17578125) rotate(0 -0.58984375 31.71875)"><path d="M15 0.3 C9.04 1.7, 4.31 1.49, 0 0 M15 0.3 C10.95 -0.22, 7.81 0.28, 0 0" stroke="#1971c2" stroke-width="2" fill="none"></path></g><g transform="translate(798.85546875 46.17578125) rotate(0 -0.58984375 31.71875)"><path d="M-15 -0.3 C-10.44 1.21, -4.65 1.21, 0 0 M-15 -0.3 C-11.68 -0.95, -7.46 -0.3, 0 0" stroke="#1971c2" stroke-width="2" fill="none"></path></g><g transform="translate(798.85546875 46.17578125) rotate(0 -0.58984375 31.71875)"><path d="M-16.18 63.11 C-11.61 64.63, -5.83 64.64, -1.18 63.44 M-16.18 63.11 C-12.86 62.47, -8.64 63.12, -1.18 63.44" stroke="#1971c2" stroke-width="2" fill="none"></path></g><g transform="translate(798.85546875 46.17578125) rotate(0 -0.58984375 31.71875)"><path d="M13.82 63.77 C7.86 65.15, 3.13 64.93, -1.18 63.44 M13.82 63.77 C9.77 63.24, 6.63 63.73, -1.18 63.44" stroke="#1971c2" stroke-width="2" fill="none"></path></g></g><mask></mask><g stroke-linecap="round"><g transform="translate(1083.37109375 193.390625) rotate(0 -45.396484375 1.58984375)"><path d="M0 0 C-29.14 -1, -60.56 2.3, -90.79 3.18 M0 0 C-33.14 2.11, -68.03 3.23, -90.79 3.18" stroke="#1971c2" stroke-width="2" fill="none"></path></g><g transform="translate(1083.37109375 193.390625) rotate(0 -45.396484375 1.58984375)"><path d="M0.45 14.99 C1.7 8.7, 1.25 5.24, 0 0 M0.45 14.99 C0.89 9.59, -0.06 3.94, 0 0" stroke="#1971c2" stroke-width="2" fill="none"></path></g><g transform="translate(1083.37109375 193.390625) rotate(0 -45.396484375 1.58984375)"><path d="M-0.45 -14.99 C1.11 -11.04, 0.96 -4.25, 0 0 M-0.45 -14.99 C0.2 -9.23, -0.41 -3.69, 0 0" stroke="#1971c2" stroke-width="2" fill="none"></path></g><g transform="translate(1083.37109375 193.390625) rotate(0 -45.396484375 1.58984375)"><path d="M-90.96 -11.82 C-89.5 -7.86, -89.74 -1.08, -90.79 3.18 M-90.96 -11.82 C-90.41 -6.05, -91.13 -0.51, -90.79 3.18" stroke="#1971c2" stroke-width="2" fill="none"></path></g><g transform="translate(1083.37109375 193.390625) rotate(0 -45.396484375 1.58984375)"><path d="M-90.62 18.18 C-89.28 11.88, -89.63 8.43, -90.79 3.18 M-90.62 18.18 C-90.08 12.77, -90.92 7.12, -90.79 3.18" stroke="#1971c2" stroke-width="2" fill="none"></path></g></g><mask></mask><g stroke-linecap="round"><g transform="translate(653.751953125 192.32761326676973) rotate(0 -45.396484375 1.58984375)"><path d="M0 0 C-22.78 0.35, -44.37 -0.22, -90.79 3.18 M0 0 C-31.68 1.31, -62.8 2.87, -90.79 3.18" stroke="#1971c2" stroke-width="2" fill="none"></path></g><g transform="translate(653.751953125 192.32761326676973) rotate(0 -45.396484375 1.58984375)"><path d="M0.29 15 C-0.26 11.21, -0.03 6.57, 0 0 M0.29 15 C-0.31 9.85, -0.44 5.07, 0 0" stroke="#1971c2" stroke-width="2" fill="none"></path></g><g transform="translate(653.751953125 192.32761326676973) rotate(0 -45.396484375 1.58984375)"><path d="M-0.29 -15 C-0.9 -11.52, -0.53 -8.9, 0 0 M-0.29 -15 C-0.62 -9.88, -0.55 -4.4, 0 0" stroke="#1971c2" stroke-width="2" fill="none"></path></g><g transform="translate(653.751953125 192.32761326676973) rotate(0 -45.396484375 1.58984375)"><path d="M-91.13 -11.82 C-91.72 -8.34, -91.35 -5.72, -90.79 3.18 M-91.13 -11.82 C-91.44 -6.7, -91.36 -1.22, -90.79 3.18" stroke="#1971c2" stroke-width="2" fill="none"></path></g><g transform="translate(653.751953125 192.32761326676973) rotate(0 -45.396484375 1.58984375)"><path d="M-90.46 18.18 C-91.02 14.38, -90.8 9.75, -90.79 3.18 M-90.46 18.18 C-91.07 13.03, -91.21 8.25, -90.79 3.18" stroke="#1971c2" stroke-width="2" fill="none"></path></g></g><mask></mask><g stroke-linecap="round"><g transform="translate(656.650390625 417.9453125000009) rotate(0 -45.396484375 1.58984375)"><path d="M0 0 C-32.08 -0.39, -63.42 4.55, -90.79 3.18 M0 0 C-31.84 0.59, -64.86 0.64, -90.79 3.18" stroke="#1971c2" stroke-width="2" fill="none"></path></g><g transform="translate(656.650390625 417.9453125000009) rotate(0 -45.396484375 1.58984375)"><path d="M0.7 14.98 C-0.28 8.36, -0.69 6.12, 0 0 M0.7 14.98 C0.47 9.78, -0.5 3.69, 0 0" stroke="#1971c2" stroke-width="2" fill="none"></path></g><g transform="translate(656.650390625 417.9453125000009) rotate(0 -45.396484375 1.58984375)"><path d="M-0.7 -14.98 C-1.17 -11.34, -1.1 -3.32, 0 0 M-0.7 -14.98 C-0.2 -9.6, -0.68 -5.11, 0 0" stroke="#1971c2" stroke-width="2" fill="none"></path></g><g transform="translate(656.650390625 417.9453125000009) rotate(0 -45.396484375 1.58984375)"><path d="M-91.81 -11.79 C-92.17 -8.15, -91.99 -0.14, -90.79 3.18 M-91.81 -11.79 C-91.2 -6.41, -91.57 -1.93, -90.79 3.18" stroke="#1971c2" stroke-width="2" fill="none"></path></g><g transform="translate(656.650390625 417.9453125000009) rotate(0 -45.396484375 1.58984375)"><path d="M-89.78 18.15 C-90.87 11.53, -91.39 9.29, -90.79 3.18 M-89.78 18.15 C-90.11 12.94, -91.2 6.86, -90.79 3.18" stroke="#1971c2" stroke-width="2" fill="none"></path></g></g><mask></mask><g stroke-linecap="round"><g transform="translate(1089.048828125 418.8125000000009) rotate(0 -45.396484375 1.58984375)"><path d="M0 0 C-30.22 -0.2, -63.28 2.41, -90.79 3.18 M0 0 C-18.17 0.88, -36.48 2.42, -90.79 3.18" stroke="#1971c2" stroke-width="2" fill="none"></path></g><g transform="translate(1089.048828125 418.8125000000009) rotate(0 -45.396484375 1.58984375)"><path d="M0.49 14.99 C1.68 8.69, 0.76 4.51, 0 0 M0.49 14.99 C0.62 11.98, 0.72 9.58, 0 0" stroke="#1971c2" stroke-width="2" fill="none"></path></g><g transform="translate(1089.048828125 418.8125000000009) rotate(0 -45.396484375 1.58984375)"><path d="M-0.49 -14.99 C1.07 -10.71, 0.49 -4.3, 0 0 M-0.49 -14.99 C-0.04 -11.87, 0.26 -8.14, 0 0" stroke="#1971c2" stroke-width="2" fill="none"></path></g><g transform="translate(1089.048828125 418.8125000000009) rotate(0 -45.396484375 1.58984375)"><path d="M-91.11 -11.82 C-89.62 -7.53, -90.26 -1.12, -90.79 3.18 M-91.11 -11.82 C-90.7 -8.69, -90.43 -4.96, -90.79 3.18" stroke="#1971c2" stroke-width="2" fill="none"></path></g><g transform="translate(1089.048828125 418.8125000000009) rotate(0 -45.396484375 1.58984375)"><path d="M-90.47 18.18 C-89.22 11.88, -90.08 7.69, -90.79 3.18 M-90.47 18.18 C-90.31 15.16, -90.17 12.76, -90.79 3.18" stroke="#1971c2" stroke-width="2" fill="none"></path></g></g><mask></mask><g stroke-linecap="round"><g transform="translate(803.1328125 501.296875) rotate(0 -0.58984375 31.71875)"><path d="M0 0 C-1.28 19.72, -0.48 40.4, -1.18 63.44 M0 0 C-0.15 16.18, -1.38 32.06, -1.18 63.44" stroke="#1971c2" stroke-width="2" fill="none"></path></g><g transform="translate(803.1328125 501.296875) rotate(0 -0.58984375 31.71875)"><path d="M15 0.3 C9.27 0.27, 5.47 0.88, 0 0 M15 0.3 C11.74 0.54, 7.28 0.45, 0 0" stroke="#1971c2" stroke-width="2" fill="none"></path></g><g transform="translate(803.1328125 501.296875) rotate(0 -0.58984375 31.71875)"><path d="M-15 -0.3 C-11.39 -0.3, -5.85 0.5, 0 0 M-15 -0.3 C-10.74 -0.13, -7.68 -0.07, 0 0" stroke="#1971c2" stroke-width="2" fill="none"></path></g><g transform="translate(803.1328125 501.296875) rotate(0 -0.58984375 31.71875)"><path d="M-16.18 63.35 C-12.57 63.28, -7.03 64.02, -1.18 63.44 M-16.18 63.35 C-11.92 63.46, -8.86 63.47, -1.18 63.44" stroke="#1971c2" stroke-width="2" fill="none"></path></g><g transform="translate(803.1328125 501.296875) rotate(0 -0.58984375 31.71875)"><path d="M13.82 63.52 C8.09 63.56, 4.3 64.24, -1.18 63.44 M13.82 63.52 C10.56 63.82, 6.1 63.78, -1.18 63.44" stroke="#1971c2" stroke-width="2" fill="none"></path></g></g><mask></mask><g transform="translate(11.0859375 302.140625) rotate(0 284.765625 108)"><text x="0" y="34.762499999999996" font-family="Cascadia, Segoe UI Emoji" font-size="36px" fill="#1e1e1e" text-anchor="start" style="white-space: pre;" direction="ltr" dominant-baseline="alphabetic">h1, p{</text><text x="0" y="77.96249999999999" font-family="Cascadia, Segoe UI Emoji" font-size="36px" fill="#1e1e1e" text-anchor="start" style="white-space: pre;" direction="ltr" dominant-baseline="alphabetic">   margin: 25px;</text><text x="0" y="121.1625" font-family="Cascadia, Segoe UI Emoji" font-size="36px" fill="#1e1e1e" text-anchor="start" style="white-space: pre;" direction="ltr" dominant-baseline="alphabetic">   padding: 10px;</text><text x="0" y="164.36249999999998" font-family="Cascadia, Segoe UI Emoji" font-size="36px" fill="#1e1e1e" text-anchor="start" style="white-space: pre;" direction="ltr" dominant-baseline="alphabetic">   border: 1px solid black;</text><text x="0" y="207.56249999999997" font-family="Cascadia, Segoe UI Emoji" font-size="36px" fill="#1e1e1e" text-anchor="start" style="white-space: pre;" direction="ltr" dominant-baseline="alphabetic">}</text></g></svg>