<svg version="1.1" xmlns="http://www.w3.org/2000/svg" viewBox="0 0 1662.11898641075 707.2865316495299" width="1662.11898641075" height="707.2865316495299">
  <!-- svg-source:excalidraw -->
  
  <defs>
    <style class="style-fonts">
      @font-face {
        font-family: "Virgil";
        src: url("https://excalidraw.com/Virgil.woff2");
      }
      @font-face {
        font-family: "Cascadia";
        src: url("https://excalidraw.com/Cascadia.woff2");
      }
      @font-face {
        font-family: "Assistant";
        src: url("https://excalidraw.com/Assistant-Regular.woff2");
      }
    </style>
    
  </defs>
  <rect x="0" y="0" width="1662.11898641075" height="707.2865316495299" fill="#ffffff"></rect><g transform="translate(62.39242391075004 89.92109375000018) rotate(0 270.703125 201.5999999999999)"><text x="0" y="27.0375" font-family="Cascadia, Segoe UI Emoji" font-size="28px" fill="#1971c2" text-anchor="start" style="white-space: pre;" direction="ltr" dominant-baseline="alphabetic">    &lt;ul&gt;</text><text x="0" y="60.6375" font-family="Cascadia, Segoe UI Emoji" font-size="28px" fill="#1971c2" text-anchor="start" style="white-space: pre;" direction="ltr" dominant-baseline="alphabetic">        &lt;li&gt;Item 1&lt;/li&gt;</text><text x="0" y="94.23750000000001" font-family="Cascadia, Segoe UI Emoji" font-size="28px" fill="#1971c2" text-anchor="start" style="white-space: pre;" direction="ltr" dominant-baseline="alphabetic">        &lt;li&gt;Item 2&lt;/li&gt;</text><text x="0" y="127.8375" font-family="Cascadia, Segoe UI Emoji" font-size="28px" fill="#1971c2" text-anchor="start" style="white-space: pre;" direction="ltr" dominant-baseline="alphabetic">        &lt;li&gt;</text><text x="0" y="161.4375" font-family="Cascadia, Segoe UI Emoji" font-size="28px" fill="#1971c2" text-anchor="start" style="white-space: pre;" direction="ltr" dominant-baseline="alphabetic">            Item 3</text><text x="0" y="195.0375" font-family="Cascadia, Segoe UI Emoji" font-size="28px" fill="#1971c2" text-anchor="start" style="white-space: pre;" direction="ltr" dominant-baseline="alphabetic">            &lt;ul&gt;</text><text x="0" y="228.63750000000002" font-family="Cascadia, Segoe UI Emoji" font-size="28px" fill="#1971c2" text-anchor="start" style="white-space: pre;" direction="ltr" dominant-baseline="alphabetic">                &lt;li&gt;Item 3.1&lt;/li&gt;</text><text x="0" y="262.2375" font-family="Cascadia, Segoe UI Emoji" font-size="28px" fill="#1971c2" text-anchor="start" style="white-space: pre;" direction="ltr" dominant-baseline="alphabetic">                &lt;li&gt;Item 3.2&lt;/li&gt;</text><text x="0" y="295.83750000000003" font-family="Cascadia, Segoe UI Emoji" font-size="28px" fill="#1971c2" text-anchor="start" style="white-space: pre;" direction="ltr" dominant-baseline="alphabetic">                &lt;li&gt;Item 3.3&lt;/li&gt;</text><text x="0" y="329.43750000000006" font-family="Cascadia, Segoe UI Emoji" font-size="28px" fill="#1971c2" text-anchor="start" style="white-space: pre;" direction="ltr" dominant-baseline="alphabetic">            &lt;/ul&gt;</text><text x="0" y="363.0375" font-family="Cascadia, Segoe UI Emoji" font-size="28px" fill="#1971c2" text-anchor="start" style="white-space: pre;" direction="ltr" dominant-baseline="alphabetic">        &lt;/li&gt;</text><text x="0" y="396.63750000000005" font-family="Cascadia, Segoe UI Emoji" font-size="28px" fill="#1971c2" text-anchor="start" style="white-space: pre;" direction="ltr" dominant-baseline="alphabetic">    &lt;/ul&gt;</text></g><g stroke-linecap="round" transform="translate(1079.81429891075 10) rotate(0 51.5625 25.130859375)"><path d="M12.57 0 C39.57 0.74, 69.14 -0.67, 90.56 0 M12.57 0 C36.49 0.42, 61.88 0.56, 90.56 0 M90.56 0 C99.69 0.53, 101.92 2.88, 103.13 12.57 M90.56 0 C97.63 -2.09, 101.7 3.61, 103.13 12.57 M103.13 12.57 C102.9 19.17, 103.32 24.18, 103.13 37.7 M103.13 12.57 C102.35 19.53, 102.96 24.87, 103.13 37.7 M103.13 37.7 C101.15 45.23, 99.39 50, 90.56 50.26 M103.13 37.7 C105.29 45.24, 98.77 49.84, 90.56 50.26 M90.56 50.26 C61.26 49.01, 29.42 49.85, 12.57 50.26 M90.56 50.26 C61.5 49.42, 33.63 50.34, 12.57 50.26 M12.57 50.26 C2.23 48.36, 0.87 45.53, 0 37.7 M12.57 50.26 C3.31 48.2, -0.34 46.42, 0 37.7 M0 37.7 C-1 33.27, -1.3 26.11, 0 12.57 M0 37.7 C-0.84 29.32, -0.27 18.96, 0 12.57 M0 12.57 C0.26 4.71, 3.85 0.97, 12.57 0 M0 12.57 C0.58 4.48, 3.71 -0.91, 12.57 0" stroke="#1e1e1e" stroke-width="1" fill="none"></path></g><g transform="translate(1114.97054891075 18.330859374999818) rotate(0 16.40625 16.800000000000182)"><text x="16.40625" y="27.0375" font-family="Cascadia, Segoe UI Emoji" font-size="28px" fill="#1e1e1e" text-anchor="middle" style="white-space: pre;" direction="ltr" dominant-baseline="alphabetic">ul</text></g><g stroke-linecap="round" transform="translate(1343.71273641075 213.291015625) rotate(0 51.5625 25.130859375)"><path d="M12.57 0 C26.84 1.09, 42.39 1.92, 90.56 0 M12.57 0 C39 -0.44, 64.55 -1.44, 90.56 0 M90.56 0 C97.66 1.64, 104.81 3.77, 103.13 12.57 M90.56 0 C100.75 -0.25, 101.6 6.48, 103.13 12.57 M103.13 12.57 C102.14 21.11, 102.64 29.52, 103.13 37.7 M103.13 12.57 C103.46 19.3, 103.27 24.33, 103.13 37.7 M103.13 37.7 C103.28 44.84, 97.4 48.71, 90.56 50.26 M103.13 37.7 C104.83 44.3, 97.5 48.41, 90.56 50.26 M90.56 50.26 C75.22 50.2, 56.04 50.99, 12.57 50.26 M90.56 50.26 C69.43 51.05, 49.59 50.38, 12.57 50.26 M12.57 50.26 C3.95 50.8, -0.99 44.56, 0 37.7 M12.57 50.26 C2.86 49.21, -0.78 46.73, 0 37.7 M0 37.7 C1.61 30.26, 1.91 25.9, 0 12.57 M0 37.7 C0.55 31.45, -0.23 26.61, 0 12.57 M0 12.57 C-1.83 2.38, 5.86 1.33, 12.57 0 M0 12.57 C-0.61 4.19, 3.47 2.08, 12.57 0" stroke="#1e1e1e" stroke-width="1" fill="none"></path></g><g transform="translate(1378.86898641075 221.62187499999982) rotate(0 16.40625 16.800000000000182)"><text x="16.40625" y="27.0375" font-family="Cascadia, Segoe UI Emoji" font-size="28px" fill="#1e1e1e" text-anchor="middle" style="white-space: pre;" direction="ltr" dominant-baseline="alphabetic">ul</text></g><g stroke-linecap="round" transform="translate(757.86898641075 126.693359375) rotate(0 51.5625 25.130859375)"><path d="M12.57 0 C36.67 1.09, 62.26 -0.44, 90.56 0 M12.57 0 C34.05 -0.78, 57.74 0.1, 90.56 0 M90.56 0 C100.05 -1.74, 104.03 2.68, 103.13 12.57 M90.56 0 C99.86 1.25, 102.1 2.36, 103.13 12.57 M103.13 12.57 C103.79 20.1, 101.49 28.1, 103.13 37.7 M103.13 12.57 C102.35 19.03, 103.17 23.48, 103.13 37.7 M103.13 37.7 C103.1 44.1, 100.47 49.8, 90.56 50.26 M103.13 37.7 C104.4 45.19, 100.79 52.25, 90.56 50.26 M90.56 50.26 C61.55 51.67, 36.18 50.36, 12.57 50.26 M90.56 50.26 C68.08 49.88, 45.05 50.43, 12.57 50.26 M12.57 50.26 C3.49 52.25, -1.24 45.8, 0 37.7 M12.57 50.26 C2.65 50.89, 1.51 44.46, 0 37.7 M0 37.7 C-1.41 29.05, 2.09 19.82, 0 12.57 M0 37.7 C-0.29 30.52, 0.63 21.77, 0 12.57 M0 12.57 C-0.15 4.75, 2.69 -1.83, 12.57 0 M0 12.57 C-1.33 2.59, 5.64 -1.41, 12.57 0" stroke="#1e1e1e" stroke-width="1" fill="none"></path></g><g transform="translate(793.02523641075 135.02421874999982) rotate(0 16.40625 16.800000000000182)"><text x="16.40625" y="27.0375" font-family="Cascadia, Segoe UI Emoji" font-size="28px" fill="#1e1e1e" text-anchor="middle" style="white-space: pre;" direction="ltr" dominant-baseline="alphabetic">li</text></g><g stroke-linecap="round" transform="translate(950.23226766075 125.251953125) rotate(0 51.5625 25.130859375)"><path d="M12.57 0 C41.16 0.05, 67.34 0.01, 90.56 0 M12.57 0 C36.83 -0.65, 60.66 0.25, 90.56 0 M90.56 0 C100.41 0.74, 102.76 6.09, 103.13 12.57 M90.56 0 C96.66 -0.02, 101.85 6.23, 103.13 12.57 M103.13 12.57 C102.68 21.87, 101.77 28.85, 103.13 37.7 M103.13 12.57 C102.29 18.69, 102.6 23.55, 103.13 37.7 M103.13 37.7 C101.73 47.65, 98.8 49.01, 90.56 50.26 M103.13 37.7 C102.62 44.32, 97.01 48.01, 90.56 50.26 M90.56 50.26 C63.16 50.64, 33.1 50.27, 12.57 50.26 M90.56 50.26 C66.62 50.29, 40.91 49.79, 12.57 50.26 M12.57 50.26 C5.26 49.51, 1.32 45.06, 0 37.7 M12.57 50.26 C1.9 51.12, 1.04 47.87, 0 37.7 M0 37.7 C1.87 31.5, -1.37 19.96, 0 12.57 M0 37.7 C0.09 31.76, 0.21 24.44, 0 12.57 M0 12.57 C1.88 5.24, 6.13 -1.14, 12.57 0 M0 12.57 C-1.73 6.18, 5.54 -0.33, 12.57 0" stroke="#1e1e1e" stroke-width="1" fill="none"></path></g><g transform="translate(985.38851766075 133.58281249999982) rotate(0 16.40625 16.800000000000182)"><text x="16.40625" y="27.0375" font-family="Cascadia, Segoe UI Emoji" font-size="28px" fill="#1e1e1e" text-anchor="middle" style="white-space: pre;" direction="ltr" dominant-baseline="alphabetic">li</text></g><g stroke-linecap="round" transform="translate(1264.63070516075 116.271484375) rotate(0 51.5625 25.130859375)"><path d="M12.57 0 C38.51 -0.36, 67.28 2.2, 90.56 0 M12.57 0 C30.13 -0.84, 45.51 0.36, 90.56 0 M90.56 0 C99.55 -0.55, 101.5 5.95, 103.13 12.57 M90.56 0 C99.6 1.25, 101.97 6.09, 103.13 12.57 M103.13 12.57 C102.43 18.73, 101.98 27.74, 103.13 37.7 M103.13 12.57 C103.11 17.41, 103.13 23.19, 103.13 37.7 M103.13 37.7 C102.79 47.75, 98.88 49.59, 90.56 50.26 M103.13 37.7 C101.91 47.83, 100.91 50.71, 90.56 50.26 M90.56 50.26 C69.51 49.95, 44.7 49.3, 12.57 50.26 M90.56 50.26 C72.97 49.44, 57.83 49.81, 12.57 50.26 M12.57 50.26 C5.47 50.68, 1.17 44.48, 0 37.7 M12.57 50.26 C2.08 51.16, -0.22 44.09, 0 37.7 M0 37.7 C-0.02 31.88, 1.99 22.28, 0 12.57 M0 37.7 C0.84 29.17, -0.3 22.55, 0 12.57 M0 12.57 C0.6 4.58, 3.09 -1.85, 12.57 0 M0 12.57 C-1.68 2.66, 2.79 -2.22, 12.57 0" stroke="#1e1e1e" stroke-width="1" fill="none"></path></g><g transform="translate(1299.78695516075 124.60234374999982) rotate(0 16.40625 16.800000000000182)"><text x="16.40625" y="27.0375" font-family="Cascadia, Segoe UI Emoji" font-size="28px" fill="#1e1e1e" text-anchor="middle" style="white-space: pre;" direction="ltr" dominant-baseline="alphabetic">li</text></g><g stroke-linecap="round" transform="translate(738.53695516075 223.35546875) rotate(0 64.697265625 25.900390625)"><path d="M12.95 0 C43.42 1.36, 70.99 -0.85, 116.44 0 M116.44 0 C126.77 -1.43, 128.69 3.39, 129.39 12.95 M129.39 12.95 C128.06 18.72, 128.26 23.28, 129.39 38.85 M129.39 38.85 C129.17 49.2, 125.14 52.82, 116.44 51.8 M116.44 51.8 C81.34 52.88, 44.63 53.6, 12.95 51.8 M12.95 51.8 C3.76 51.69, -0.25 46.83, 0 38.85 M0 38.85 C0 30.38, 1.62 19.2, 0 12.95 M0 12.95 C-0.33 3.92, 6.05 1.31, 12.95 0" stroke="#1e1e1e" stroke-width="1.5" fill="none" stroke-dasharray="8 9"></path></g><g transform="translate(754.01547078575 232.45585937499982) rotate(0 49.21875 16.800000000000182)"><text x="49.21875" y="27.0375" font-family="Cascadia, Segoe UI Emoji" font-size="28px" fill="#1e1e1e" text-anchor="middle" style="white-space: pre;" direction="ltr" dominant-baseline="alphabetic">Item-1</text></g><g stroke-linecap="round" transform="translate(896.78890828575 220.810546875) rotate(0 64.697265625 25.900390625)"><path d="M12.95 0 C34.61 0.66, 56.96 0.99, 116.44 0 M116.44 0 C126.59 -1.34, 130.59 5.75, 129.39 12.95 M129.39 12.95 C127.4 18.69, 127.24 26.4, 129.39 38.85 M129.39 38.85 C131.16 45.99, 126.85 50.83, 116.44 51.8 M116.44 51.8 C93.47 50.38, 70.78 52.28, 12.95 51.8 M12.95 51.8 C5.54 49.89, -1 47.56, 0 38.85 M0 38.85 C-0.05 29.32, -1.1 21.72, 0 12.95 M0 12.95 C-0.82 2.88, 4.6 -1.99, 12.95 0" stroke="#1e1e1e" stroke-width="1.5" fill="none" stroke-dasharray="8 9"></path></g><g transform="translate(912.26742391075 229.91093749999982) rotate(0 49.21875 16.800000000000182)"><text x="49.21875" y="27.0375" font-family="Cascadia, Segoe UI Emoji" font-size="28px" fill="#1e1e1e" text-anchor="middle" style="white-space: pre;" direction="ltr" dominant-baseline="alphabetic">Item-2</text></g><g stroke-linecap="round" transform="translate(1184.16390828575 212.650390625) rotate(0 64.697265625 25.900390625)"><path d="M12.95 0 C35.61 1.17, 60.35 -0.03, 116.44 0 M116.44 0 C124.45 -1.62, 130.92 3.5, 129.39 12.95 M129.39 12.95 C130.25 18.15, 127.38 25.98, 129.39 38.85 M129.39 38.85 C128.77 48.1, 124.43 50.31, 116.44 51.8 M116.44 51.8 C76.71 50.42, 40.67 51.88, 12.95 51.8 M12.95 51.8 C5.12 50.38, -0.53 48.57, 0 38.85 M0 38.85 C-0.37 27.26, 1.74 18.71, 0 12.95 M0 12.95 C-1.4 6.14, 6.24 1.34, 12.95 0" stroke="#1e1e1e" stroke-width="1.5" fill="none" stroke-dasharray="8 9"></path></g><g transform="translate(1199.64242391075 221.75078124999982) rotate(0 49.21875 16.800000000000182)"><text x="49.21875" y="27.0375" font-family="Cascadia, Segoe UI Emoji" font-size="28px" fill="#1e1e1e" text-anchor="middle" style="white-space: pre;" direction="ltr" dominant-baseline="alphabetic">Item-3</text></g><g stroke-linecap="round" transform="translate(1132.12289266075 355.95703125) rotate(0 51.5625 25.130859375)"><path d="M12.57 0 C30.46 0.99, 51.05 0.09, 90.56 0 M12.57 0 C35.31 -0.06, 58.11 -0.44, 90.56 0 M90.56 0 C96.97 -1.49, 104.14 5.47, 103.13 12.57 M90.56 0 C100.31 -1.8, 104.59 2.65, 103.13 12.57 M103.13 12.57 C103.89 22.79, 102.51 29.26, 103.13 37.7 M103.13 12.57 C103.77 22.29, 103.64 30.08, 103.13 37.7 M103.13 37.7 C101.2 46.56, 97.35 48.57, 90.56 50.26 M103.13 37.7 C103.12 46.59, 100.82 50.67, 90.56 50.26 M90.56 50.26 C67.58 50.7, 45.36 52.32, 12.57 50.26 M90.56 50.26 C72.2 50.15, 52.99 50.36, 12.57 50.26 M12.57 50.26 C5.47 50.98, -0.84 45.33, 0 37.7 M12.57 50.26 C5.74 48.67, 1.8 44.08, 0 37.7 M0 37.7 C-0.41 30.64, 0.86 25.57, 0 12.57 M0 37.7 C0.31 29.28, 0.41 21.88, 0 12.57 M0 12.57 C-1.55 6.07, 2.9 -0.03, 12.57 0 M0 12.57 C-0.4 3.89, 4.88 -0.11, 12.57 0" stroke="#1e1e1e" stroke-width="1" fill="none"></path></g><g transform="translate(1167.27914266075 364.2878906249998) rotate(0 16.40625 16.800000000000182)"><text x="16.40625" y="27.0375" font-family="Cascadia, Segoe UI Emoji" font-size="28px" fill="#1e1e1e" text-anchor="middle" style="white-space: pre;" direction="ltr" dominant-baseline="alphabetic">li</text></g><g stroke-linecap="round" transform="translate(1324.77523641075 355.38671875) rotate(0 51.5625 25.130859375)"><path d="M12.57 0 C42.63 1.18, 73.18 -1.32, 90.56 0 M12.57 0 C35.82 -0.53, 61.54 0.85, 90.56 0 M90.56 0 C100.13 -1.57, 104.4 2.85, 103.13 12.57 M90.56 0 C100.48 -0.06, 102.64 5.07, 103.13 12.57 M103.13 12.57 C104.16 21.65, 104.53 31.38, 103.13 37.7 M103.13 12.57 C102.28 22.35, 102.45 30.8, 103.13 37.7 M103.13 37.7 C103.12 46.52, 100.58 50.62, 90.56 50.26 M103.13 37.7 C102.9 46.65, 100.4 49.85, 90.56 50.26 M90.56 50.26 C66.15 51.35, 43.08 51.27, 12.57 50.26 M90.56 50.26 C65.17 51.05, 38.08 50.31, 12.57 50.26 M12.57 50.26 C5.54 48.88, 1.56 44.34, 0 37.7 M12.57 50.26 C3.44 48.47, 1.02 45.38, 0 37.7 M0 37.7 C0.21 30.88, -1.96 24.14, 0 12.57 M0 37.7 C-0.89 32.36, -0.76 25.13, 0 12.57 M0 12.57 C-0.35 3.93, 4.79 -0.09, 12.57 0 M0 12.57 C-1.16 3.86, 3.15 -2.09, 12.57 0" stroke="#1e1e1e" stroke-width="1" fill="none"></path></g><g transform="translate(1359.93148641075 363.7175781249998) rotate(0 16.40625 16.800000000000182)"><text x="16.40625" y="27.0375" font-family="Cascadia, Segoe UI Emoji" font-size="28px" fill="#1e1e1e" text-anchor="middle" style="white-space: pre;" direction="ltr" dominant-baseline="alphabetic">li</text></g><g stroke-linecap="round" transform="translate(1525.49789266075 345.984375) rotate(0 51.5625 25.130859375)"><path d="M12.57 0 C42.01 -1.49, 70.48 -1.57, 90.56 0 M12.57 0 C30.74 -1.28, 48.37 -1.17, 90.56 0 M90.56 0 C100.28 -0.05, 102.7 4.96, 103.13 12.57 M90.56 0 C100.09 -0.7, 101.11 5.46, 103.13 12.57 M103.13 12.57 C104.9 21.43, 102.61 26.44, 103.13 37.7 M103.13 12.57 C102.92 20.94, 103.75 29.04, 103.13 37.7 M103.13 37.7 C102.93 46.57, 100.21 49.9, 90.56 50.26 M103.13 37.7 C103.06 46.13, 100.73 48.84, 90.56 50.26 M90.56 50.26 C65.96 49.53, 41.09 51.7, 12.57 50.26 M90.56 50.26 C65.02 49.28, 38.91 49.1, 12.57 50.26 M12.57 50.26 C3.54 48.7, 0.88 45.47, 0 37.7 M12.57 50.26 C3.81 51.03, 1.52 46.42, 0 37.7 M0 37.7 C-0.77 30.67, 0.26 20.29, 0 12.57 M0 37.7 C-0.01 27.66, 0.46 17.85, 0 12.57 M0 12.57 C-1.01 3.91, 3.28 -1.82, 12.57 0 M0 12.57 C0.91 5.73, 4.55 1.73, 12.57 0" stroke="#1e1e1e" stroke-width="1" fill="none"></path></g><g transform="translate(1560.65414266075 354.3152343749998) rotate(0 16.40625 16.800000000000182)"><text x="16.40625" y="27.0375" font-family="Cascadia, Segoe UI Emoji" font-size="28px" fill="#1e1e1e" text-anchor="middle" style="white-space: pre;" direction="ltr" dominant-baseline="alphabetic">li</text></g><g stroke-linecap="round" transform="translate(1101.51254109825 473.4306640625) rotate(0 91.90625 39)"><path d="M19.5 0 C60.63 0.35, 104.07 2.38, 164.31 0 M164.31 0 C176.36 -1.22, 183.09 6.32, 183.81 19.5 M183.81 19.5 C182.73 29.95, 182.93 44.35, 183.81 58.5 M183.81 58.5 C184.9 71.64, 176.67 76.67, 164.31 78 M164.31 78 C125.84 76.09, 88.05 78.72, 19.5 78 M19.5 78 C7.31 78.7, -0.46 72.73, 0 58.5 M0 58.5 C1.37 43.5, -1.57 30.77, 0 19.5 M0 19.5 C1.47 6.6, 4.94 -1.98, 19.5 0" stroke="#1e1e1e" stroke-width="1.5" fill="none" stroke-dasharray="8 9"></path></g><g transform="translate(1127.79379109825 495.6306640624998) rotate(0 65.625 16.800000000000182)"><text x="65.625" y="27.0375" font-family="Cascadia, Segoe UI Emoji" font-size="28px" fill="#1e1e1e" text-anchor="middle" style="white-space: pre;" direction="ltr" dominant-baseline="alphabetic">Item-3.1</text></g><g stroke-linecap="round" transform="translate(1314.18246297325 470.8857421875) rotate(0 79 39)"><path d="M19.5 0 C51.56 -2.16, 84.81 -1.12, 138.5 0 M138.5 0 C151.87 0.93, 159.97 5.23, 158 19.5 M158 19.5 C158.88 27.5, 157.15 33.9, 158 58.5 M158 58.5 C157.26 70.63, 149.9 77.59, 138.5 78 M138.5 78 C108.07 79.81, 75.57 80.35, 19.5 78 M19.5 78 C7.22 78.85, -0.24 73.03, 0 58.5 M0 58.5 C1.75 50.61, -1.29 40.53, 0 19.5 M0 19.5 C1.37 4.75, 5.01 1.11, 19.5 0" stroke="#1e1e1e" stroke-width="1.5" fill="none" stroke-dasharray="8 9"></path></g><g transform="translate(1327.55746297325 493.0857421874998) rotate(0 65.625 16.800000000000182)"><text x="65.625" y="27.0375" font-family="Cascadia, Segoe UI Emoji" font-size="28px" fill="#1e1e1e" text-anchor="middle" style="white-space: pre;" direction="ltr" dominant-baseline="alphabetic">Item-3.2</text></g><g stroke-linecap="round" transform="translate(1488.17074422325 463.1748046875) rotate(0 71.962890625 39)"><path d="M19.5 0 C44.97 1.03, 71.67 -1.17, 124.43 0 M19.5 0 C41.21 0.06, 61.52 -0.67, 124.43 0 M124.43 0 C136.68 -0.87, 142.33 6.09, 143.93 19.5 M124.43 0 C136.56 -0.16, 146.08 7.43, 143.93 19.5 M143.93 19.5 C144.55 33.41, 143.59 47.15, 143.93 58.5 M143.93 19.5 C144.39 27.55, 142.87 34.5, 143.93 58.5 M143.93 58.5 C145.3 69.75, 135.93 79.11, 124.43 78 M143.93 58.5 C142.98 72.01, 135.77 76.67, 124.43 78 M124.43 78 C99.77 78.37, 76.2 79.75, 19.5 78 M124.43 78 C90.85 78.15, 57.3 78.37, 19.5 78 M19.5 78 C5.09 77.03, -1.52 70.36, 0 58.5 M19.5 78 C6.23 79.6, -0.57 71.78, 0 58.5 M0 58.5 C-0.69 42.89, -1.21 28.41, 0 19.5 M0 58.5 C-1.25 47.61, -1.08 37.39, 0 19.5 M0 19.5 C-0.8 5.62, 4.8 0.67, 19.5 0 M0 19.5 C-1.22 4.77, 5.12 -1.77, 19.5 0" stroke="#1e1e1e" stroke-width="1" fill="none"></path></g><g transform="translate(1494.50863484825 485.3748046874998) rotate(0 65.625 16.800000000000182)"><text x="65.625" y="27.0375" font-family="Cascadia, Segoe UI Emoji" font-size="28px" fill="#1e1e1e" text-anchor="middle" style="white-space: pre;" direction="ltr" dominant-baseline="alphabetic">Item-3.3</text></g><g stroke-linecap="round"><g transform="translate(1128.19320516075 63.48046875) rotate(0 -165.580078125 32.37109375)"><path d="M0.93 0.85 C-54.58 11.4, -276.64 53.05, -332.08 63.9 M-0.05 0.25 C-55.26 10.87, -274.4 54.33, -329.86 64.99" stroke="#1e1e1e" stroke-width="1" fill="none"></path></g></g><mask></mask><g stroke-linecap="round"><g transform="translate(1121.40023641075 63.3984375) rotate(0 -60.548828125 31.58203125)"><path d="M1.16 0.57 C-18.74 11.41, -100.03 53.98, -120.27 64.26 M0.3 -0.17 C-19.6 10.43, -100.62 52.17, -120.78 62.71" stroke="#1e1e1e" stroke-width="1" fill="none"></path></g></g><mask></mask><g stroke-linecap="round"><g transform="translate(1123.89242391075 63.41015625) rotate(0 88.578125 26.357421875)"><path d="M-0.64 -1.09 C28.86 7.41, 148.54 43.14, 178.18 51.99 M1.23 0.96 C30.55 10.12, 148.57 44.48, 177.78 53.14" stroke="#1e1e1e" stroke-width="1" fill="none"></path></g></g><mask></mask><g stroke-linecap="round"><g transform="translate(808.89633016075 175.1171875) rotate(0 -0.38671875 24.345703125)"><path d="M-0.19 -0.1 C-0.29 8.08, -0.14 40.83, -0.33 49.03 M0.71 -0.63 C0.56 7.4, -0.37 40.09, -0.53 48.23" stroke="#1e1e1e" stroke-width="1" fill="none"></path></g></g><mask></mask><g stroke-linecap="round"><g transform="translate(996.03695516075 174.4375) rotate(0 -14.34375 24.15234375)"><path d="M-0.97 0.4 C-5.67 8.79, -24.61 41.29, -29.22 49.34 M0.72 -0.43 C-4.1 7.73, -25.43 39.92, -30.45 47.75" stroke="#1e1e1e" stroke-width="1" fill="none"></path></g></g><mask></mask><g stroke-linecap="round"><g transform="translate(1294.87679891075 161.0234375) rotate(0 -21.12109375 26.236328125)"><path d="M-0.49 -1.04 C-7.54 7.74, -35.59 42.87, -42.62 51.81 M1.45 1.04 C-5.76 10.03, -36.24 44.18, -43.77 53" stroke="#1e1e1e" stroke-width="1" fill="none"></path></g></g><mask></mask><g stroke-linecap="round"><g transform="translate(1318.79476766075 166.3984375) rotate(0 42.498046875 22.6171875)"><path d="M0.4 -0.92 C14.48 6.52, 70.99 37.53, 85.02 45.26 M-0.86 1.21 C13.02 8.81, 70.01 39.2, 84.09 46.82" stroke="#1e1e1e" stroke-width="1" fill="none"></path></g></g><mask></mask><g stroke-linecap="round"><g transform="translate(1397.49398641075 259.9375) rotate(0 -109.017578125 48.669921875)"><path d="M0.68 0.04 C-35.49 16.21, -181.38 80.19, -217.95 96.27 M-0.42 -0.99 C-36.65 15.35, -182.88 80.85, -218.85 97.25" stroke="#1e1e1e" stroke-width="1" fill="none"></path></g></g><mask></mask><g stroke-linecap="round"><g transform="translate(1392.60336141075 262.98046875) rotate(0 -4.271484375 46.365234375)"><path d="M1.03 0.8 C-0.46 16.23, -6.43 76.37, -7.91 91.61 M0.12 0.18 C-1.57 15.8, -7.13 77.04, -8.53 92.56" stroke="#1e1e1e" stroke-width="1" fill="none"></path></g></g><mask></mask><g stroke-linecap="round"><g transform="translate(1396.77914266075 260.8984375) rotate(0 88.59375 41.302734375)"><path d="M0.45 -0.91 C29.84 12.63, 146.48 68.08, 176.09 82.16 M-0.77 1.23 C29 14.85, 148.46 70.05, 178.23 83.46" stroke="#1e1e1e" stroke-width="1" fill="none"></path></g></g><mask></mask><g stroke-linecap="round"><g transform="translate(1184.41976766075 407.6171875) rotate(0 0.9921875 35.578125)"><path d="M0.02 -1.01 C0.07 10.92, 0.91 58.41, 1.14 70.41 M-1.44 1.07 C-1.07 13.25, 3.12 59.69, 3.41 71.55" stroke="#1e1e1e" stroke-width="1" fill="none"></path></g></g><mask></mask><g stroke-linecap="round"><g transform="translate(1373.93148641075 403.484375) rotate(0 7.474609375 33.638671875)"><path d="M0.66 0.43 C3.17 11.81, 13.48 56.78, 15.85 68.02 M-0.45 -0.39 C1.91 10.67, 12.95 55.25, 15.38 66.29" stroke="#1e1e1e" stroke-width="1" fill="none"></path></g></g><mask></mask><g stroke-linecap="round"><g transform="translate(1576.32211141075 397.6796875) rotate(0 -3.615234375 33.607421875)"><path d="M1.09 -0.57 C0.23 10.53, -4.72 56.28, -6.2 67.66 M0.2 1.75 C-0.63 13, -5.1 55.13, -6.6 65.77" stroke="#1e1e1e" stroke-width="1" fill="none"></path></g></g><mask></mask><g transform="translate(136.13851766075004 593.0390625) rotate(0 213.28125 50.40000000000009)"><text x="0" y="27.0375" font-family="Cascadia, Segoe UI Emoji" font-size="28px" fill="#1e1e1e" text-anchor="start" style="white-space: pre;" direction="ltr" dominant-baseline="alphabetic">ul li:last-child {</text><text x="0" y="60.6375" font-family="Cascadia, Segoe UI Emoji" font-size="28px" fill="#1e1e1e" text-anchor="start" style="white-space: pre;" direction="ltr" dominant-baseline="alphabetic">    border: 1px solid red;</text><text x="0" y="94.23750000000001" font-family="Cascadia, Segoe UI Emoji" font-size="28px" fill="#1e1e1e" text-anchor="start" style="white-space: pre;" direction="ltr" dominant-baseline="alphabetic">}</text></g><g stroke-linecap="round"><g transform="translate(723.43148641075 517.91796875) rotate(0 -357.09375 -1.830078125)"><path d="M-0.9 0.59 C-119.58 0.09, -594.13 -1.86, -713.07 -2.48 M0.82 -0.15 C-117.83 -0.99, -594.04 -3.15, -713.43 -3.99" stroke="#1e1e1e" stroke-width="4" fill="none"></path></g></g><mask></mask><g stroke-linecap="round"><g transform="translate(731.52133016075 29.59375) rotate(0 -2.294921875 333.421875)"><path d="M1.16 -0.06 C0.33 111.16, -2.64 556.4, -3.8 667.69 M0.31 -1.14 C-0.72 109.73, -3.69 554.86, -4.33 666.02" stroke="#1e1e1e" stroke-width="1" fill="none"></path></g></g><mask></mask><g stroke-linecap="round"><g transform="translate(1288.54086141075 164.1640625) rotate(0 31.037109375 -2.138671875)"><path d="M1.03 -0.47 C11.69 -1.5, 53.02 -4.4, 63.25 -5.19 M0.12 -1.76 C10.77 -2.75, 52.64 -3.7, 62.92 -4.13" stroke="#e03131" stroke-width="4" fill="none"></path></g></g><mask></mask><g stroke-linecap="round"><g transform="translate(434.08773641075004 605.84765625) rotate(0 331.52734375 -133.150390625)"><path d="M-0.23 -0.82 C110.27 -45.19, 552.62 -221.82, 663.15 -266.14 M-1.81 1.36 C108.53 -42.79, 551.6 -220.02, 662.25 -264.52" stroke="#e03131" stroke-width="4" fill="none"></path></g><g transform="translate(434.08773641075004 605.84765625) rotate(0 331.52734375 -133.150390625)"><path d="M643.62 -247.84 C648.08 -252.87, 655.55 -258.49, 662.25 -264.52 M643.62 -247.84 C648.45 -252.46, 652.62 -256.47, 662.25 -264.52" stroke="#e03131" stroke-width="4" fill="none"></path></g><g transform="translate(434.08773641075004 605.84765625) rotate(0 331.52734375 -133.150390625)"><path d="M637.26 -263.71 C643.72 -263.76, 653.19 -264.4, 662.25 -264.52 M637.26 -263.71 C643.78 -264.16, 649.64 -263.96, 662.25 -264.52" stroke="#e03131" stroke-width="4" fill="none"></path></g></g><mask></mask><g stroke-linecap="round" transform="translate(1099.23617391075 110.86328125) rotate(0 276.44140625 244.5)"><path d="M32 0 C152.1 -0.92, 273.33 -1.7, 520.88 0 M32 0 C134.99 0.75, 237.65 0.8, 520.88 0 M520.88 0 C542.14 -1.25, 551.1 9.06, 552.88 32 M520.88 0 C539.93 -0.93, 552.42 8.37, 552.88 32 M552.88 32 C552.52 196.96, 553.73 361.67, 552.88 457 M552.88 32 C552.05 164.73, 551.9 297.4, 552.88 457 M552.88 457 C553.45 478.62, 541.95 489.14, 520.88 489 M552.88 457 C551.2 479.75, 541.94 487.9, 520.88 489 M520.88 489 C363.25 487.98, 205.03 488.41, 32 489 M520.88 489 C338.14 489.2, 155.95 489.07, 32 489 M32 489 C9.68 488.35, -0.89 479.92, 0 457 M32 489 C9.28 488.65, 0.72 476.64, 0 457 M0 457 C0.35 303.8, 0 152.07, 0 32 M0 457 C1.43 306.69, 1.31 156.58, 0 32 M0 32 C-0.96 12.05, 11.73 -0.62, 32 0 M0 32 C-2.04 11.43, 8.46 -2.07, 32 0" stroke="#e03131" stroke-width="4" fill="none"></path></g><g stroke-linecap="round" transform="translate(1480.67758016075 334.47265625) rotate(0 80.755859375 127.75390625)"><path d="M32 0 C60.36 1.09, 86.62 1.31, 129.51 0 M32 0 C59.37 0.89, 85.83 0.95, 129.51 0 M129.51 0 C150.3 -0.14, 162.92 8.77, 161.51 32 M129.51 0 C151.67 -1.13, 161.27 12.49, 161.51 32 M161.51 32 C158.8 82.24, 161.43 130.37, 161.51 223.51 M161.51 32 C162.25 78.54, 160.6 126.29, 161.51 223.51 M161.51 223.51 C161.29 243.81, 150.92 256.24, 129.51 255.51 M161.51 223.51 C161.39 244.8, 149.31 255.23, 129.51 255.51 M129.51 255.51 C90.72 256, 57.55 253.06, 32 255.51 M129.51 255.51 C108.09 256.11, 88.54 255.76, 32 255.51 M32 255.51 C11.78 255.82, 1.82 244.86, 0 223.51 M32 255.51 C12.46 254.39, -2.29 244.04, 0 223.51 M0 223.51 C0.86 180.37, -1.07 137.76, 0 32 M0 223.51 C1.11 159.42, 2.17 93.86, 0 32 M0 32 C1.92 10.08, 11.23 0.17, 32 0 M0 32 C0.94 9.91, 10.54 0.6, 32 0" stroke="#e03131" stroke-width="4" fill="none"></path></g><g stroke-linecap="round"><g transform="translate(439.41976766075004 617.84375) rotate(0 521.080078125 -23.3984375)"><path d="M0.14 -1.16 C173.74 -8.95, 867.64 -38.18, 1041.23 -45.6 M-1.24 0.85 C172.76 -6.73, 869.8 -39.04, 1043.46 -47.1" stroke="#e03131" stroke-width="4" fill="none"></path></g><g transform="translate(439.41976766075004 617.84375) rotate(0 521.080078125 -23.3984375)"><path d="M1020.39 -37.47 C1024.63 -41.66, 1034.82 -43.51, 1043.46 -47.1 M1020.39 -37.47 C1029.31 -41.34, 1037.85 -45.72, 1043.46 -47.1" stroke="#e03131" stroke-width="4" fill="none"></path></g><g transform="translate(439.41976766075004 617.84375) rotate(0 521.080078125 -23.3984375)"><path d="M1019.59 -54.55 C1024.22 -54.1, 1034.62 -51.3, 1043.46 -47.1 M1019.59 -54.55 C1028.77 -51.78, 1037.62 -49.52, 1043.46 -47.1" stroke="#e03131" stroke-width="4" fill="none"></path></g></g><mask></mask></svg>